mtllib barrel.mtl
o Default
v 0.0312500074505806 0.25 0.4062499701976776
v 0.0312500074505806 0.5 0.3062500059604645
v 0.2999999523162842 0.5 0.17499998211860657
v 0.375 0.25 0.2499999701976776
v -0.3124999701976776 0.25 0.2499999850988388
v 0.0312500074505806 0.5 0.3062500059604645
v -0.23749998211860657 0.5 0.17499999701976776
v 0.0312500074505806 0.25 0.4062499701976776
v 0.375 0.25 0.2499999701976776
v 0.4312499463558197 0.5 -0.0937499925494194
v 0.2999999523162842 0.5 0.17499998211860657
v 0.53125 0.25 -0.0937499925494194
v 0.53125 0.25 -0.0937499925494194
v 0.30000004172325134 0.5 -0.3624999523162842
v 0.4312499463558197 0.5 -0.0937499925494194
v 0.3749999701976776 0.25 -0.4375
v 0.30000004172325134 -0.5 0.17500001192092896
v 0.53125 -0.25 -0.0937499925494194
v 0.3749999701976776 -0.25 0.25
v 0.4312499463558197 -0.5 -0.0937499925494194
v 0.3749999701976776 -0.25 0.25
v 0.53125 0.25 -0.0937499925494194
v 0.375 0.25 0.2499999701976776
v 0.53125 -0.25 -0.0937499925494194
v 0.53125 -0.25 -0.0937499925494194
v 0.3749999701976776 0.25 -0.4375
v 0.53125 0.25 -0.0937499925494194
v 0.375 -0.25 -0.4375
v 0.4312499463558197 -0.5 -0.0937499925494194
v 0.375 -0.25 -0.4375
v 0.53125 -0.25 -0.0937499925494194
v 0.30000004172325134 -0.5 -0.3624999523162842
v 0.03125 -0.25 0.40625
v 0.375 0.25 0.2499999701976776
v 0.0312500074505806 0.25 0.4062499701976776
v 0.3749999701976776 -0.25 0.25
v 0.0312500074505806 -0.5 0.3062500059604645
v 0.3749999701976776 -0.25 0.25
v 0.03125 -0.25 0.40625
v 0.30000004172325134 -0.5 0.17500001192092896
v -0.23749998211860657 -0.5 0.17499999701976776
v 0.03125 -0.25 0.40625
v -0.3124999701976776 -0.25 0.2499999850988388
v 0.0312500074505806 -0.5 0.3062500059604645
v -0.3124999701976776 -0.25 0.2499999850988388
v 0.0312500074505806 0.25 0.4062499701976776
v -0.3124999701976776 0.25 0.2499999850988388
v 0.03125 -0.25 0.40625
v -0.3124999701976776 0.25 -0.4375
v -0.3687500059604645 0.5 -0.0937500074505806
v -0.23749999701976776 0.5 -0.3624999523162842
v -0.4687499701976776 0.25 -0.0937500074505806
v -0.4687499701976776 0.25 -0.0937500074505806
v -0.23749998211860657 0.5 0.17499999701976776
v -0.3687500059604645 0.5 -0.0937500074505806
v -0.3124999701976776 0.25 0.2499999850988388
v -0.46875 -0.25 -0.09375
v -0.3124999701976776 0.25 0.2499999850988388
v -0.4687499701976776 0.25 -0.0937500074505806
v -0.3124999701976776 -0.25 0.2499999850988388
v -0.3687500059604645 -0.5 -0.09375002235174179
v -0.3124999701976776 -0.25 0.2499999850988388
v -0.46875 -0.25 -0.09375
v -0.23749998211860657 -0.5 0.17499999701976776
v -0.23749999701976776 -0.5 -0.3624999523162842
v -0.46875 -0.25 -0.09375
v -0.3124999701976776 -0.25 -0.4375
v -0.3687500059604645 -0.5 -0.09375002235174179
v -0.3124999701976776 -0.25 -0.4375
v -0.4687499701976776 0.25 -0.0937500074505806
v -0.3124999701976776 0.25 -0.4375
v -0.46875 -0.25 -0.09375
v 0.031249992549419403 0.25 -0.59375
v -0.23749999701976776 0.5 -0.3624999523162842
v 0.031249992549419403 0.5 -0.4937499463558197
v -0.3124999701976776 0.25 -0.4375
v 0.3749999701976776 0.25 -0.4375
v 0.031249992549419403 0.5 -0.4937499463558197
v 0.30000004172325134 0.5 -0.3624999523162842
v 0.031249992549419403 0.25 -0.59375
v 0.375 -0.25 -0.4375
v 0.031249992549419403 0.25 -0.59375
v 0.3749999701976776 0.25 -0.4375
v 0.03125 -0.25 -0.59375
v 0.30000004172325134 -0.5 -0.3624999523162842
v 0.03125 -0.25 -0.59375
v 0.375 -0.25 -0.4375
v 0.0312500074505806 -0.5 -0.4937499463558197
v 0.03125 -0.25 -0.59375
v -0.3124999701976776 0.25 -0.4375
v 0.031249992549419403 0.25 -0.59375
v -0.3124999701976776 -0.25 -0.4375
v 0.0312500074505806 -0.5 -0.4937499463558197
v -0.3124999701976776 -0.25 -0.4375
v 0.03125 -0.25 -0.59375
v -0.23749999701976776 -0.5 -0.3624999523162842
v -0.3687499761581421 -0.500058650970459 -0.4938899874687195
v 0.4312499761581421 -0.500058650970459 -0.4938899874687195
v -0.3687499761581421 -0.5001587271690369 0.3061099052429199
v 0.4312499761581421 -0.5001587271690369 0.3061099052429199
v -0.3687499761581421 0.49984127283096313 0.3061099052429199
v 0.4312499761581421 0.499941349029541 -0.4938899874687195
v -0.3687499761581421 0.499941349029541 -0.4938899874687195
v 0.4312499761581421 0.49984127283096313 0.3061099052429199
vt 0.75 0.75
vt 1 1
vt 0.75 1
vt 0.75 0.75
vt 1 0.75
vt 1 1
vt 0.5 0.75
vt 0.75 1
vt 0.5 1
vt 0.5 0.75
vt 0.75 0.75
vt 0.75 1
vt 0.5 0.75
vt 0.75 1
vt 0.5 1
vt 0.5 0.75
vt 0.75 0.75
vt 0.75 1
vt 0.75 0.75
vt 1 1
vt 0.75 1
vt 0.75 0.75
vt 1 0.75
vt 1 1
vt 0.5 0
vt 0.75 0.25
vt 0.5 0.25
vt 0.5 0
vt 0.75 0
vt 0.75 0.25
vt 0.5 0.25
vt 0.75 0.75
vt 0.5 0.75
vt 0.5 0.25
vt 0.75 0.25
vt 0.75 0.75
vt 0.75 0.25
vt 1 0.75
vt 0.75 0.75
vt 0.75 0.25
vt 1 0.25
vt 1 0.75
vt 0.75 0
vt 1 0.25
vt 0.75 0.25
vt 0.75 0
vt 1 0
vt 1 0.25
vt 0.75 0.25
vt 1 0.75
vt 0.75 0.75
vt 0.75 0.25
vt 1 0.25
vt 1 0.75
vt 0.75 0
vt 1 0.25
vt 0.75 0.25
vt 0.75 0
vt 1 0
vt 1 0.25
vt 0.5 0
vt 0.75 0.25
vt 0.5 0.25
vt 0.5 0
vt 0.75 0
vt 0.75 0.25
vt 0.5 0.25
vt 0.75 0.75
vt 0.5 0.75
vt 0.5 0.25
vt 0.75 0.25
vt 0.75 0.75
vt 0.5 0.75
vt 0.75 1
vt 0.5 1
vt 0.5 0.75
vt 0.75 0.75
vt 0.75 1
vt 0.75 0.75
vt 1 1
vt 0.75 1
vt 0.75 0.75
vt 1 0.75
vt 1 1
vt 0.75 0.25
vt 1 0.75
vt 0.75 0.75
vt 0.75 0.25
vt 1 0.25
vt 1 0.75
vt 0.75 0
vt 1 0.25
vt 0.75 0.25
vt 0.75 0
vt 1 0
vt 1 0.25
vt 0.5 0
vt 0.75 0.25
vt 0.5 0.25
vt 0.5 0
vt 0.75 0
vt 0.75 0.25
vt 0.5 0.25
vt 0.75 0.75
vt 0.5 0.75
vt 0.5 0.25
vt 0.75 0.25
vt 0.75 0.75
vt 0.75 0.75
vt 1 1
vt 0.75 1
vt 0.75 0.75
vt 1 0.75
vt 1 1
vt 0.5 0.75
vt 0.75 1
vt 0.5 1
vt 0.5 0.75
vt 0.75 0.75
vt 0.75 1
vt 0.5 0.25
vt 0.75 0.75
vt 0.5 0.75
vt 0.5 0.25
vt 0.75 0.25
vt 0.75 0.75
vt 0.5 0
vt 0.75 0.25
vt 0.5 0.25
vt 0.5 0
vt 0.75 0
vt 0.75 0.25
vt 0.75 0.25
vt 1 0.75
vt 0.75 0.75
vt 0.75 0.25
vt 1 0.25
vt 1 0.75
vt 0.75 0
vt 1 0.25
vt 0.75 0.25
vt 0.75 0
vt 1 0
vt 1 0.25
vt 0 1
vt 0.5 1
vt 0 0
vt 0.5 1
vt 0.5 0
vt 0 0
vt 0 0
vt 0.5 1
vt 0 1
vt 0 0
vt 0.5 0
vt 0.5 1
vn 0.4129701174729972 0.3382419396561751 0.8456051515524058
vn 0.4129701174729972 0.3382419396561751 0.8456051515524058
vn 0.4129701174729972 0.3382419396561751 0.8456051515524058
vn 0.38456987814124866 0.36918711052218073 0.8460537135730262
vn 0.38456987814124866 0.36918711052218073 0.8460537135730262
vn 0.38456987814124866 0.36918711052218073 0.8460537135730262
vn -0.4072767079949524 0.37236718994223705 0.8339474557664387
vn -0.4072767079949524 0.37236718994223705 0.8339474557664387
vn -0.4072767079949524 0.37236718994223705 0.8339474557664387
vn -0.38882553615605264 0.34216635983181953 0.8554162055002232
vn -0.38882553615605264 0.34216635983181953 0.8554162055002232
vn -0.38882553615605264 0.34216635983181953 0.8554162055002232
vn 0.8339474042623125 0.3723673586764257 0.4072766591845075
vn 0.8339474042623125 0.3723673586764257 0.4072766591845075
vn 0.8339474042623125 0.3723673586764257 0.4072766591845075
vn 0.8554160980191867 0.34216662276005627 0.38882554123746355
vn 0.8554160980191867 0.34216662276005627 0.38882554123746355
vn 0.8554160980191867 0.34216662276005627 0.38882554123746355
vn 0.8456052040359567 0.3382422630615748 -0.412969745122197
vn 0.8456052040359567 0.3382422630615748 -0.412969745122197
vn 0.8456052040359567 0.3382422630615748 -0.412969745122197
vn 0.8460537528259766 0.3691869429398881 -0.3845699526637269
vn 0.8460537528259766 0.3691869429398881 -0.3845699526637269
vn 0.8460537528259766 0.3691869429398881 -0.3845699526637269
vn 0.8460537744788849 -0.369186865700999 0.38456997917661884
vn 0.8460537744788849 -0.369186865700999 0.38456997917661884
vn 0.8460537744788849 -0.369186865700999 0.38456997917661884
vn 0.8456052280241196 -0.3382422726568451 0.41296968814455276
vn 0.8456052280241196 -0.3382422726568451 0.41296968814455276
vn 0.8456052280241196 -0.3382422726568451 0.41296968814455276
vn 0.9103664605690558 -2.959748978031083e-8 0.4138029814669885
vn 0.9103664605690558 -2.959748978031083e-8 0.4138029814669885
vn 0.9103664605690558 -2.959748978031083e-8 0.4138029814669885
vn 0.9103664443512517 0 0.413803017146153
vn 0.9103664443512517 0 0.413803017146153
vn 0.9103664443512517 0 0.413803017146153
vn 0.9103664511086722 0 -0.4138030022798309
vn 0.9103664511086722 0 -0.4138030022798309
vn 0.9103664511086722 0 -0.4138030022798309
vn 0.9103664808413126 5.426207070596889e-8 -0.41380293686802316
vn 0.9103664808413126 5.426207070596889e-8 -0.41380293686802316
vn 0.9103664808413126 5.426207070596889e-8 -0.41380293686802316
vn 0.8554161148376235 -0.34216662948743454 -0.38882549831680857
vn 0.8554161148376235 -0.34216662948743454 -0.38882549831680857
vn 0.8554161148376235 -0.34216662948743454 -0.38882549831680857
vn 0.8339475770259304 -0.3723671582208148 -0.4072764887040925
vn 0.8339475770259304 -0.3723671582208148 -0.4072764887040925
vn 0.8339475770259304 -0.3723671582208148 -0.4072764887040925
vn 0.41380295173434395 4.809592581691196e-8 0.9103664740838944
vn 0.41380295173434395 4.809592581691196e-8 0.9103664740838944
vn 0.41380295173434395 4.809592581691196e-8 0.9103664740838944
vn 0.41380297403382715 2.9597490424748593e-8 0.910366463947766
vn 0.41380297403382715 2.9597490424748593e-8 0.910366463947766
vn 0.41380297403382715 2.9597490424748593e-8 0.910366463947766
vn 0.3888255627594629 -0.3421664335806757 0.8554161639082278
vn 0.3888255627594629 -0.3421664335806757 0.8554161639082278
vn 0.3888255627594629 -0.3421664335806757 0.8554161639082278
vn 0.40727663282928656 -0.37236709413638847 0.8339475352536637
vn 0.40727663282928656 -0.37236709413638847 0.8339475352536637
vn 0.40727663282928656 -0.37236709413638847 0.8339475352536637
vn -0.3845699410909243 -0.36918703855551904 0.8460537163631684
vn -0.3845699410909243 -0.36918703855551904 0.8460537163631684
vn -0.3845699410909243 -0.36918703855551904 0.8460537163631684
vn -0.41297000580596704 -0.3382420559712509 0.8456051595614592
vn -0.41297000580596704 -0.3382420559712509 0.8456051595614592
vn -0.41297000580596704 -0.3382420559712509 0.8456051595614592
vn -0.41380293389475875 0 0.9103664821927979
vn -0.41380293389475875 0 0.9103664821927979
vn -0.41380293389475875 0 0.9103664821927979
vn -0.4138030067397326 6.042821411886065e-8 0.9103664490814417
vn -0.4138030067397326 6.042821411886065e-8 0.9103664490814417
vn -0.4138030067397326 6.042821411886065e-8 0.9103664490814417
vn -0.8339474117276626 0.3723672379973639 -0.40727675423346565
vn -0.8339474117276626 0.3723672379973639 -0.40727675423346565
vn -0.8339474117276626 0.3723672379973639 -0.40727675423346565
vn -0.8554161987728468 0.34216635714086996 -0.38882555332431545
vn -0.8554161987728468 0.34216635714086996 -0.38882555332431545
vn -0.8554161987728468 0.34216635714086996 -0.38882555332431545
vn -0.8456051835366782 0.3382419524498795 0.41297004150276356
vn -0.8456051835366782 0.3382419524498795 0.41297004150276356
vn -0.8456051835366782 0.3382419524498795 0.41297004150276356
vn -0.8460537422121545 0.36918703133064906 0.3845698911590345
vn -0.8460537422121545 0.36918703133064906 0.3845698911590345
vn -0.8460537422121545 0.36918703133064906 0.3845698911590345
vn -0.9103664740838937 6.042821478947876e-8 0.41380295173434367
vn -0.9103664740838937 6.042821478947876e-8 0.41380295173434367
vn -0.9103664740838937 6.042821478947876e-8 0.41380295173434367
vn -0.9103664409725413 0 0.41380302457931434
vn -0.9103664409725413 0 0.41380302457931434
vn -0.9103664409725413 0 0.41380302457931434
vn -0.8554161312804544 -0.34216646688119 0.3888256052361057
vn -0.8554161312804544 -0.34216646688119 0.3888256052361057
vn -0.8554161312804544 -0.34216646688119 0.3888256052361057
vn -0.8339474553010295 -0.372367190057024 0.40727670884298495
vn -0.8339474553010295 -0.372367190057024 0.40727670884298495
vn -0.8339474553010295 -0.372367190057024 0.40727670884298495
vn -0.8460537020783168 -0.36918707458225497 -0.3845699379319336
vn -0.8460537020783168 -0.36918707458225497 -0.3845699379319336
vn -0.8460537020783168 -0.36918707458225497 -0.3845699379319336
vn -0.8456051416578783 -0.3382419995799505 -0.41297008865281776
vn -0.8456051416578783 -0.3382419995799505 -0.41297008865281776
vn -0.8456051416578783 -0.3382419995799505 -0.41297008865281776
vn -0.9103664740838955 0 -0.41380295173434445
vn -0.9103664740838955 0 -0.41380295173434445
vn -0.9103664740838955 0 -0.41380295173434445
vn -0.910366447729961 4.809592338214595e-8 -0.41380300971299133
vn -0.910366447729961 4.809592338214595e-8 -0.41380300971299133
vn -0.910366447729961 4.809592338214595e-8 -0.41380300971299133
vn -0.41296994047422864 0.3382422301634749 -0.8456051217907511
vn -0.41296994047422864 0.3382422301634749 -0.8456051217907511
vn -0.41296994047422864 0.3382422301634749 -0.8456051217907511
vn -0.38456989276456177 0.36918718965945524 -0.8460536723934284
vn -0.38456989276456177 0.36918718965945524 -0.8460536723934284
vn -0.38456989276456177 0.36918718965945524 -0.8460536723934284
vn 0.40727658486689017 0.3723672629853982 -0.833947483284125
vn 0.40727658486689017 0.3723672629853982 -0.833947483284125
vn 0.40727658486689017 0.3723672629853982 -0.833947483284125
vn 0.3888255269305776 0.34216662500251593 -0.8554161036253329
vn 0.3888255269305776 0.34216662500251593 -0.8554161036253329
vn 0.3888255269305776 0.34216662500251593 -0.8554161036253329
vn 0.41380296660066596 2.4664578831235525e-8 -0.9103664673264759
vn 0.41380296660066596 2.4664578831235525e-8 -0.9103664673264759
vn 0.41380296660066596 2.4664578831235525e-8 -0.9103664673264759
vn 0.413802944301184 6.166144375520706e-9 -0.9103664774626048
vn 0.413802944301184 6.166144375520706e-9 -0.9103664774626048
vn 0.413802944301184 6.166144375520706e-9 -0.9103664774626048
vn 0.38456986228124573 -0.36918716497991205 -0.8460536970187407
vn 0.38456986228124573 -0.36918716497991205 -0.8460536970187407
vn 0.38456986228124573 -0.36918716497991205 -0.8460536970187407
vn 0.4129698852157286 -0.33824222885936034 -0.8456051492991041
vn 0.4129698852157286 -0.33824222885936034 -0.8456051492991041
vn 0.4129698852157286 -0.33824222885936034 -0.8456051492991041
vn -0.4138029814669887 -6.166144929334353e-9 -0.9103664605690563
vn -0.4138029814669887 -6.166144929334353e-9 -0.9103664605690563
vn -0.4138029814669887 -6.166144929334353e-9 -0.9103664605690563
vn -0.41380297403382726 0 -0.9103664639477663
vn -0.41380297403382726 0 -0.9103664639477663
vn -0.41380297403382726 0 -0.9103664639477663
vn -0.38882553254232954 -0.3421666341125014 -0.8554160974305403
vn -0.38882553254232954 -0.3421666341125014 -0.8554160974305403
vn -0.38882553254232954 -0.3421666341125014 -0.8554160974305403
vn -0.40727662724852864 -0.37236733294576513 -0.8339474313479963
vn -0.40727662724852864 -0.37236733294576513 -0.8339474313479963
vn -0.40727662724852864 -0.37236733294576513 -0.8339474313479963
vn 0 -0.9999999921755875 -0.0001250952640201365
vn 0 -0.9999999921755875 -0.0001250952640201365
vn 0 -0.9999999921755875 -0.0001250952640201365
vn 0 -0.9999999921755875 -0.0001250952640201365
vn 0 -0.9999999921755875 -0.0001250952640201365
vn 0 -0.9999999921755875 -0.0001250952640201365
vn 0 0.9999999921755875 0.0001250952640201365
vn 0 0.9999999921755875 0.0001250952640201365
vn 0 0.9999999921755875 0.0001250952640201365
vn 0 0.9999999921755875 0.0001250952640201365
vn 0 0.9999999921755875 0.0001250952640201365
vn 0 0.9999999921755875 0.0001250952640201365
g Scene
usemtl material1
f 1/1/1 3/2/2 2/3/3
f 1/4/4 4/5/5 3/6/6
f 5/7/7 6/8/8 7/9/9
f 5/10/10 8/11/11 6/12/12
f 9/13/13 10/14/14 11/15/15
f 9/16/16 12/17/17 10/18/18
f 13/19/19 14/20/20 15/21/21
f 13/22/22 16/23/23 14/24/24
f 17/25/25 18/26/26 19/27/27
f 17/28/28 20/29/29 18/30/30
f 21/31/31 22/32/32 23/33/33
f 21/34/34 24/35/35 22/36/36
f 25/37/37 26/38/38 27/39/39
f 25/40/40 28/41/41 26/42/42
f 29/43/43 30/44/44 31/45/45
f 29/46/46 32/47/47 30/48/48
f 33/49/49 34/50/50 35/51/51
f 33/52/52 36/53/53 34/54/54
f 37/55/55 38/56/56 39/57/57
f 37/58/58 40/59/59 38/60/60
f 41/61/61 42/62/62 43/63/63
f 41/64/64 44/65/65 42/66/66
f 45/67/67 46/68/68 47/69/69
f 45/70/70 48/71/71 46/72/72
f 49/73/73 50/74/74 51/75/75
f 49/76/76 52/77/77 50/78/78
f 53/79/79 54/80/80 55/81/81
f 53/82/82 56/83/83 54/84/84
f 57/85/85 58/86/86 59/87/87
f 57/88/88 60/89/89 58/90/90
f 61/91/91 62/92/92 63/93/93
f 61/94/94 64/95/95 62/96/96
f 65/97/97 66/98/98 67/99/99
f 65/100/100 68/101/101 66/102/102
f 69/103/103 70/104/104 71/105/105
f 69/106/106 72/107/107 70/108/108
f 73/109/109 74/110/110 75/111/111
f 73/112/112 76/113/113 74/114/114
f 77/115/115 78/116/116 79/117/117
f 77/118/118 80/119/119 78/120/120
f 81/121/121 82/122/122 83/123/123
f 81/124/124 84/125/125 82/126/126
f 85/127/127 86/128/128 87/129/129
f 85/130/130 88/131/131 86/132/132
f 89/133/133 90/134/134 91/135/135
f 89/136/136 92/137/137 90/138/138
f 93/139/139 94/140/140 95/141/141
f 93/142/142 96/143/143 94/144/144
f 97/145/145 98/146/146 99/147/147
f 98/148/148 100/149/149 99/150/150
f 101/151/151 102/152/152 103/153/153
f 101/154/154 104/155/155 102/156/156
